<?xml version="1.0" encoding="UTF-8" standalone="no"?>
<!-- Created with Inkscape (http://www.inkscape.org/) -->

<svg
   width="80.000008mm"
   height="80.000008mm"
   viewBox="0 0 80.000008 80.000008"
   version="1.1"
   id="svg1175"
   inkscape:version="1.1.2 (0a00cf5339, 2022-02-04)"
   sodipodi:docname="monero-accepted-here.en-US.outline.svg"
   xmlns:inkscape="http://www.inkscape.org/namespaces/inkscape"
   xmlns:sodipodi="http://sodipodi.sourceforge.net/DTD/sodipodi-0.dtd"
   xmlns="http://www.w3.org/2000/svg"
   xmlns:svg="http://www.w3.org/2000/svg"
   xmlns:rdf="http://www.w3.org/1999/02/22-rdf-syntax-ns#"
   xmlns:cc="http://creativecommons.org/ns#"
   xmlns:dc="http://purl.org/dc/elements/1.1/">
  <title
     id="title11905">Monero Accepted Here</title>
  <sodipodi:namedview
     id="namedview1177"
     pagecolor="#505050"
     bordercolor="#ffffff"
     borderopacity="1"
     inkscape:pageshadow="0"
     inkscape:pageopacity="0"
     inkscape:pagecheckerboard="1"
     inkscape:document-units="mm"
     showgrid="false"
     inkscape:zoom="1.6404165"
     inkscape:cx="35.052074"
     inkscape:cy="151.18112"
     inkscape:window-width="1366"
     inkscape:window-height="704"
     inkscape:window-x="0"
     inkscape:window-y="27"
     inkscape:window-maximized="1"
     inkscape:current-layer="layer1"
     showguides="true"
     inkscape:snap-bbox="true"
     inkscape:bbox-paths="true"
     inkscape:bbox-nodes="true"
     inkscape:snap-bbox-edge-midpoints="true"
     inkscape:snap-bbox-midpoints="true"
     fit-margin-top="0"
     fit-margin-left="0"
     fit-margin-right="0"
     fit-margin-bottom="0" />
  <defs
     id="defs1172">
    <filter
       inkscape:collect="always"
       style="color-interpolation-filters:sRGB"
       id="filter21430"
       x="-0.083834171"
       y="-0.083834175"
       width="1.1676683"
       height="1.1676683">
      <feGaussianBlur
         inkscape:collect="always"
         stdDeviation="2.3248028"
         id="feGaussianBlur21432" />
    </filter>
  </defs>
  <g
     inkscape:label="Layer 1"
     inkscape:groupmode="layer"
     id="layer1"
     transform="translate(-63.984382,-100.84075)">
    <g
       id="g22590"
       transform="translate(206.31581,84.502044)"
       inkscape:export-filename="/home/icarolongo/source/png/monero-accepted-here.en-US.png"
       inkscape:export-xdpi="300"
       inkscape:export-ydpi="300">
      <g
         id="g22588"
         transform="matrix(0.69209443,0,0,0.69209443,-12.756361,-16.89413)">
        <g
           id="g28821">
          <path
             id="rect22550"
             style="fill:#ffffff;stroke-width:0.356691;stroke-linecap:round"
             transform="matrix(1.4448896,0,0,1.4448896,18.431532,24.410152)"
             d="m -142.33142,16.338711 h 79.999999 v 80 h -79.999999 z" />
          <path
             id="rect22554"
             style="fill:#ff6600;stroke-width:0.397834;stroke-linecap:round"
             d="M -187.22165,48.017784 H -71.630486 V 116.89507 H -187.22165 Z" />
          <path
             id="rect24683"
             style="fill:#4c4c4c;stroke-width:0.306118;stroke-linecap:round"
             d="m -187.22165,122.82874 h 115.591164 v 40.78022 H -187.22165 Z" />
          <g
             id="g28173"
             transform="translate(-0.90435334,1.2825626)">
            <path
               id="path22556"
               style="opacity:0.426147;stroke-width:1.88976;stroke-linecap:round;filter:url(#filter21430)"
               transform="matrix(1.0086932,0,0,1.024433,-234.03112,-0.95059314)"
               d="M 113.50191,73.14582 A 33.277164,33.277164 0 0 1 136.70637,113.9599 33.277164,33.277164 0 0 1 96.002789,137.35765 33.277164,33.277164 0 0 1 72.412268,96.765495 33.277164,33.277164 0 0 1 112.8921,72.982735 Z" />
            <g
               id="g9709"
               transform="translate(0,1.213178)">
              <path
                 id="path22558"
                 style="fill:#ffffff;stroke-width:1.88976;stroke-linecap:round"
                 d="m -119.94043,72.982727 a 33.277164,33.277164 0 0 1 23.204454,40.814083 33.277164,33.277164 0 0 1 -40.703584,23.39775 33.277164,33.277164 0 0 1 -23.59052,-40.592159 33.277164,33.277164 0 0 1 40.47983,-23.78276 z" />
              <g
                 id="g22564"
                 transform="translate(-232.8366,0.08560464)">
                <path
                   d="m 104.04959,75.520086 c -16.256995,-0.03073 -29.466544,13.127375 -29.497279,29.385164 -0.0061,3.25029 0.514502,6.37711 1.482304,9.30292 l 8.804645,0.0166 0.04683,-24.771237 19.10092,19.173267 19.17327,-19.100912 -0.0468,24.771232 8.80544,0.0166 c 0.97886,-2.92214 1.51132,-6.04697 1.51747,-9.29725 0.0307,-16.257792 -13.12897,-29.46575 -29.38677,-29.496484"
                   id="path22560"
                   style="fill:#ff6600;stroke-width:0.548688" />
                <path
                   d="m 91.242585,104.65015 -0.02947,15.58684 -12.405964,-0.0235 c 5.152192,8.48891 14.475878,14.16942 25.130639,14.18956 10.65477,0.0202 20.00067,-5.62507 25.18412,-14.09444 l -12.40517,-0.0234 0.0295,-15.58683 -12.77632,12.7281 z"
                   id="path22562"
                   style="fill:#4c4c4c;stroke-width:0.548688" />
              </g>
            </g>
            <g
               aria-label="ACCEPTED HERE"
               id="text22584"
               style="font-size:8.38281px;line-height:1.25;text-align:center;letter-spacing:0px;text-anchor:middle;fill:#ffffff;stroke-width:0.209571">
              <path
                 d="m -158.30777,146.41196 -2.32204,6.01886 h 1.19036 l 0.49458,-1.24066 h 2.45617 l 0.46944,1.24066 h 1.19035 l -2.32203,-6.01886 z m 0.58679,1.59273 0.79637,2.07056 h -1.60111 z"
                 style="font-family:MoneroGothic;-inkscape-font-specification:MoneroGothic"
                 id="path85" />
              <path
                 d="m -148.41607,147.46819 c -0.33531,-0.38561 -0.73769,-0.679 -1.19036,-0.88857 -0.46105,-0.20957 -0.93887,-0.31855 -1.43346,-0.31855 -0.5868,0 -1.13168,0.14251 -1.63465,0.42752 -0.50297,0.28502 -0.89696,0.65386 -1.16521,1.1233 -0.27663,0.46944 -0.41076,1.00594 -0.41076,1.60112 0,0.93049 0.2934,1.69332 0.89697,2.28012 0.59517,0.59518 1.35801,0.88858 2.29689,0.88858 0.50296,0 0.95564,-0.0838 1.34963,-0.25149 0.39399,-0.16765 0.81313,-0.46943 1.2658,-0.90534 l -0.7796,-0.80475 c -0.33531,0.32693 -0.63709,0.55327 -0.90534,0.67901 -0.27664,0.12574 -0.57842,0.18442 -0.91373,0.18442 -0.39399,0 -0.74607,-0.0838 -1.06462,-0.26825 -0.31854,-0.17604 -0.57003,-0.41914 -0.73768,-0.72931 -0.17604,-0.31016 -0.25987,-0.67062 -0.25987,-1.07299 0,-0.57004 0.1928,-1.05624 0.5868,-1.45023 0.39399,-0.39399 0.88019,-0.59518 1.45861,-0.59518 0.67062,0.008 1.28257,0.30178 1.83583,0.87181 z"
                 style="font-family:MoneroGothic;-inkscape-font-specification:MoneroGothic"
                 id="path87" />
              <path
                 d="m -141.88587,147.46819 c -0.33531,-0.38561 -0.73768,-0.679 -1.19036,-0.88857 -0.46105,-0.20957 -0.93887,-0.31855 -1.43346,-0.31855 -0.58679,0 -1.13168,0.14251 -1.63464,0.42752 -0.50297,0.28502 -0.89696,0.65386 -1.16521,1.1233 -0.27664,0.46944 -0.41076,1.00594 -0.41076,1.60112 0,0.93049 0.2934,1.69332 0.89696,2.28012 0.59518,0.59518 1.35801,0.88858 2.29689,0.88858 0.50297,0 0.95564,-0.0838 1.34963,-0.25149 0.39399,-0.16765 0.81313,-0.46943 1.26581,-0.90534 l -0.77961,-0.80475 c -0.33531,0.32693 -0.63709,0.55327 -0.90534,0.67901 -0.27663,0.12574 -0.57841,0.18442 -0.91373,0.18442 -0.39399,0 -0.74607,-0.0838 -1.06461,-0.26825 -0.31855,-0.17604 -0.57003,-0.41914 -0.73769,-0.72931 -0.17604,-0.31016 -0.25987,-0.67062 -0.25987,-1.07299 0,-0.57004 0.19281,-1.05624 0.5868,-1.45023 0.39399,-0.39399 0.88019,-0.59518 1.45861,-0.59518 0.67062,0.008 1.28257,0.30178 1.83583,0.87181 z"
                 style="font-family:MoneroGothic;-inkscape-font-specification:MoneroGothic"
                 id="path89" />
              <path
                 d="m -141.1901,146.41196 0.008,6.01886 h 3.69682 v -1.1233 h -2.55675 v -1.39155 h 2.55675 v -1.16521 h -2.55675 v -1.2155 h 2.55675 v -1.1233 z"
                 style="font-family:MoneroGothic;-inkscape-font-specification:MoneroGothic"
                 id="path91" />
              <path
                 d="m -136.52927,146.41196 v 6.01886 h 1.14006 v -2.54838 c 0.57842,0 0.98079,-0.0251 1.20713,-0.0922 0.37722,-0.10897 0.67901,-0.30178 0.89696,-0.5868 0.21795,-0.27663 0.32693,-0.62871 0.32693,-1.04785 0,-0.37722 -0.0838,-0.70415 -0.25149,-0.9724 -0.16765,-0.26825 -0.40237,-0.46944 -0.68739,-0.5868 -0.28501,-0.11736 -0.76283,-0.18442 -1.41669,-0.18442 z m 1.14006,2.34719 v -1.22389 h 0.32693 c 0.35208,0 0.59518,0.0419 0.72931,0.11736 0.17604,0.10059 0.26825,0.26825 0.26825,0.50296 0,0.13413 -0.0335,0.25149 -0.1006,0.3437 -0.0671,0.10059 -0.15089,0.16766 -0.25986,0.20119 -0.11736,0.0419 -0.31017,0.0587 -0.59518,0.0587 z"
                 style="font-family:MoneroGothic;-inkscape-font-specification:MoneroGothic"
                 id="path93" />
              <path
                 d="m -132.43008,146.41196 v 1.13168 h 1.073 v 4.88718 h 1.15683 v -4.88718 h 1.09815 v -1.13168 z"
                 style="font-family:MoneroGothic;-inkscape-font-specification:MoneroGothic"
                 id="path95" />
              <path
                 d="m -128.6243,146.41196 0.008,6.01886 h 3.69682 v -1.1233 h -2.55676 v -1.39155 h 2.55676 v -1.16521 h -2.55676 v -1.2155 h 2.55676 v -1.1233 z"
                 style="font-family:MoneroGothic;-inkscape-font-specification:MoneroGothic"
                 id="path97" />
              <path
                 d="m -123.95508,146.41196 v 6.01886 h 1.37478 c 0.7796,0 1.32448,-0.0419 1.64303,-0.14251 0.31855,-0.10059 0.61194,-0.27663 0.88019,-0.5365 0.26825,-0.25149 0.48621,-0.57841 0.6371,-0.96402 0.15089,-0.38561 0.23472,-0.81314 0.23472,-1.28257 0,-0.65386 -0.14251,-1.22389 -0.41076,-1.7101 -0.27663,-0.4862 -0.62871,-0.83828 -1.04785,-1.05623 -0.42753,-0.21795 -1.08139,-0.32693 -1.9532,-0.32693 z m 1.14006,1.10653 h 0.38561 0.0335 c 0.68739,0 1.19874,0.15927 1.51729,0.46944 0.35208,0.35208 0.5365,0.84666 0.5365,1.48375 0,0.41915 -0.0755,0.77122 -0.22634,1.05624 -0.15089,0.28501 -0.34369,0.4862 -0.57841,0.60356 -0.23472,0.11736 -0.62033,0.17604 -1.14006,0.17604 h -0.52812 z"
                 style="font-family:MoneroGothic;-inkscape-font-specification:MoneroGothic"
                 id="path99" />
              <path
                 d="m -115.75671,146.41196 v 6.01886 h 1.15683 v -2.64059 h 2.01187 v 2.64059 h 1.16521 v -6.01886 h -1.16521 v 2.27174 h -2.01187 v -2.27174 z"
                 style="font-family:MoneroGothic;-inkscape-font-specification:MoneroGothic"
                 id="path101" />
              <path
                 d="m -110.35819,146.41196 0.008,6.01886 h 3.69682 v -1.1233 h -2.55676 v -1.39155 h 2.55676 v -1.16521 h -2.55676 v -1.2155 h 2.55676 v -1.1233 z"
                 style="font-family:MoneroGothic;-inkscape-font-specification:MoneroGothic"
                 id="path103" />
              <path
                 d="m -105.99076,146.41196 v 6.01886 h 1.14844 v -2.54838 h 0.98917 l 1.22389,2.54838 h 1.24904 l -1.42507,-2.67412 c 0.3856,-0.13412 0.67062,-0.33531 0.85504,-0.60356 0.18442,-0.26825 0.28502,-0.59518 0.28502,-0.99756 0,-0.36884 -0.12574,-0.7293 -0.36885,-1.073 -0.25148,-0.34369 -0.59518,-0.55326 -1.03108,-0.62032 -0.25987,-0.0335 -0.87181,-0.0587 -1.82745,-0.0587 z m 1.14844,2.34719 v -1.22389 h 0.92211 c 0.30178,0 0.5365,0.0251 0.70416,0.0671 0.15927,0.0419 0.27663,0.10897 0.34369,0.20957 0.0671,0.10059 0.1006,0.20957 0.1006,0.33531 0,0.21795 -0.0755,0.37723 -0.20957,0.46944 -0.14251,0.10059 -0.394,0.14251 -0.75446,0.14251 z"
                 style="font-family:MoneroGothic;-inkscape-font-specification:MoneroGothic"
                 id="path105" />
              <path
                 d="m -100.75991,146.41196 0.008,6.01886 h 3.696816 v -1.1233 h -2.556757 v -1.39155 h 2.556757 v -1.16521 h -2.556757 v -1.2155 h 2.556757 v -1.1233 z"
                 style="font-family:MoneroGothic;-inkscape-font-specification:MoneroGothic"
                 id="path107" />
            </g>
            <g
               id="g27851"
               transform="matrix(1.7243466,0,0,1.7243466,-296.56419,-103.07165)"
               style="fill:#ffffff">
              <path
                 d="m 114.08533,97.021231 c -0.36569,0.375139 -0.80866,0.561562 -1.3291,0.560579 -0.45982,-9.38e-4 -0.86606,-0.146059 -1.22132,-0.437068 -0.45669,-0.371082 -0.68415,-0.875673 -0.68295,-1.513591 10e-4,-0.571133 0.18381,-1.042773 0.54818,-1.412489 0.36306,-0.371029 0.81126,-0.554823 1.34498,-0.553814 0.52698,9.85e-4 0.97466,0.191909 1.34154,0.572175 0.36838,0.380455 0.55195,0.845118 0.55091,1.39455 -9.3e-4,0.550929 -0.18487,1.013213 -0.55224,1.389658 m 0.77313,-3.541144 c -0.5848,-0.590574 -1.28483,-0.887473 -2.10065,-0.889015 -0.53764,-10e-4 -1.04056,0.133287 -1.50632,0.402353 -0.46745,0.26925 -0.83462,0.634845 -1.10151,1.09716 -0.26708,0.462128 -0.4016,0.968842 -0.40265,1.519583 -0.002,0.822559 0.28314,1.533041 0.85464,2.132195 0.57093,0.600087 1.28873,0.899638 2.15226,0.90127 0.82517,0.0016 1.52799,-0.287262 2.10808,-0.869273 0.58009,-0.5807 0.87028,-1.292714 0.87187,-2.133979 0.002,-0.848001 -0.28999,-1.567849 -0.87572,-2.160294"
                 id="path30-6-7-7"
                 style="fill:#ffffff;stroke-width:0.128658" />
              <path
                 d="m 107.65375,94.803292 c -0.13918,0.09664 -0.20493,0.14422 -0.57272,0.143525 l -1.44719,-0.0027 0.002,-1.238047 1.40229,0.0027 c 0.28117,5.4e-4 0.33089,0.02177 0.44605,0.06538 0.11478,0.04231 0.20594,0.11282 0.2746,0.209667 0.0687,0.09703 0.10212,0.212147 0.10187,0.344033 -4.7e-4,0.221868 -0.0696,0.380375 -0.20725,0.475523 m 0.17183,1.140162 c 0.38357,-0.136961 0.67167,-0.338455 0.86299,-0.604673 0.19151,-0.267714 0.28623,-0.599029 0.28698,-0.997493 7.1e-4,-0.3777 -0.0841,-0.706361 -0.25649,-0.983181 -0.17214,-0.27682 -0.40056,-0.475175 -0.68375,-0.595064 -0.28337,-0.119888 -0.75917,-0.181025 -1.4287,-0.182291 l -2.11935,-0.004 -0.0114,6.049929 1.15105,0.0021 0.005,-2.561773 1.00458,0.0019 1.35704,2.564348 1.259,0.0024 z"
                 id="path34-3-5-0"
                 style="fill:#ffffff;stroke-width:0.128658" />
              <path
                 d="m 99.327382,92.565682 3.922538,0.0074 -0.002,1.127112 -2.7784,-0.0053 -0.002,1.238234 2.77841,0.0053 -0.002,1.10747 -2.77841,-0.0053 -0.003,1.445698 2.7784,0.0053 -0.002,1.131602 -3.922533,-0.0074 z"
                 id="path38-2-3-9"
                 style="fill:#ffffff;stroke-width:0.128658" />
              <path
                 d="m 93.249712,92.554193 1.102045,0.0021 2.58792,3.985811 0.0075,-3.980905 1.15106,0.0022 -0.01144,6.049926 -1.106161,-0.0021 -2.583828,-3.973081 -0.0075,3.968183 -1.151058,-0.0021 z"
                 id="path42-0-5-3"
                 style="fill:#ffffff;stroke-width:0.128658" />
              <path
                 d="m 90.690292,96.977004 c -0.36569,0.375139 -0.80866,0.561562 -1.3291,0.560579 -0.45982,-9.38e-4 -0.86606,-0.146059 -1.22132,-0.437068 -0.45669,-0.371082 -0.68415,-0.875673 -0.68295,-1.513591 10e-4,-0.571133 0.18381,-1.042773 0.54818,-1.412489 0.36306,-0.371029 0.81126,-0.554823 1.34498,-0.553814 0.52698,9.85e-4 0.97466,0.191909 1.34154,0.572175 0.36838,0.380455 0.55195,0.845118 0.55091,1.39455 -9.3e-4,0.550929 -0.18487,1.013213 -0.55224,1.389658 m 0.77313,-3.541144 c -0.5848,-0.590574 -1.28483,-0.887473 -2.10065,-0.889015 -0.53764,-0.001 -1.04056,0.133287 -1.50632,0.402353 -0.46745,0.26925 -0.83462,0.634845 -1.10151,1.09716 -0.26708,0.462128 -0.4016,0.968842 -0.40265,1.519583 -0.002,0.822559 0.28314,1.533041 0.85464,2.132195 0.57093,0.600087 1.28873,0.899638 2.15226,0.90127 0.82517,0.0016 1.52799,-0.287262 2.10808,-0.869273 0.58009,-0.5807 0.87028,-1.292714 0.87187,-2.133979 0.002,-0.848001 -0.28999,-1.567849 -0.87572,-2.160294"
                 id="use46-6-6-6"
                 style="fill:#ffffff;stroke-width:0.128658" />
              <path
                 d="m 79.855576,92.528704 1.127113,0.0021 1.390016,4.222439 1.427297,-4.217113 1.110276,0.0021 1.007921,6.052042 -1.110463,-0.0021 -0.642667,-3.822185 -1.29447,3.818525 -1.015055,-0.0019 -1.263,-3.823358 -0.669835,3.819705 -1.122996,-0.0021 z"
                 id="path50-1-2-0"
                 style="fill:#ffffff;stroke-width:0.128658" />
            </g>
          </g>
        </g>
      </g>
    </g>
  </g>
  <metadata
     id="metadata29048">
    <rdf:RDF>
      <cc:Work
         rdf:about="">
        <cc:license
           rdf:resource="http://creativecommons.org/publicdomain/zero/1.0/" />
        <dc:creator>
          <cc:Agent>
            <dc:title>icarolongo - https://github.com/icarolongo/we-accept-monero</dc:title>
          </cc:Agent>
        </dc:creator>
        <dc:date>2022-06-21</dc:date>
        <dc:source>https://github.com/icarolongo/we-accept-monero</dc:source>
        <dc:title>Monero Accepted Here</dc:title>
      </cc:Work>
      <cc:License
         rdf:about="http://creativecommons.org/publicdomain/zero/1.0/">
        <cc:permits
           rdf:resource="http://creativecommons.org/ns#Reproduction" />
        <cc:permits
           rdf:resource="http://creativecommons.org/ns#Distribution" />
        <cc:permits
           rdf:resource="http://creativecommons.org/ns#DerivativeWorks" />
      </cc:License>
    </rdf:RDF>
  </metadata>
</svg>
