<?xml version="1.0" encoding="UTF-8" standalone="no"?>
<!-- Created with Inkscape (http://www.inkscape.org/) -->

<svg
   width="80.000008mm"
   height="80.000008mm"
   viewBox="0 0 80.000008 80.000008"
   version="1.1"
   id="svg1175"
   inkscape:version="1.1.2 (0a00cf5339, 2022-02-04)"
   sodipodi:docname="we-accept-monero.pt-BR.outline.svg"
   xmlns:inkscape="http://www.inkscape.org/namespaces/inkscape"
   xmlns:sodipodi="http://sodipodi.sourceforge.net/DTD/sodipodi-0.dtd"
   xmlns="http://www.w3.org/2000/svg"
   xmlns:svg="http://www.w3.org/2000/svg"
   xmlns:rdf="http://www.w3.org/1999/02/22-rdf-syntax-ns#"
   xmlns:cc="http://creativecommons.org/ns#"
   xmlns:dc="http://purl.org/dc/elements/1.1/">
  <title
     id="title16346">We Accept Monero</title>
  <sodipodi:namedview
     id="namedview1177"
     pagecolor="#505050"
     bordercolor="#ffffff"
     borderopacity="1"
     inkscape:pageshadow="0"
     inkscape:pageopacity="0"
     inkscape:pagecheckerboard="1"
     inkscape:document-units="mm"
     showgrid="false"
     inkscape:zoom="1.6404166"
     inkscape:cx="151.48591"
     inkscape:cy="151.18111"
     inkscape:window-width="1366"
     inkscape:window-height="704"
     inkscape:window-x="0"
     inkscape:window-y="27"
     inkscape:window-maximized="1"
     inkscape:current-layer="g28173"
     showguides="false"
     inkscape:snap-bbox="true"
     inkscape:bbox-paths="true"
     inkscape:bbox-nodes="true"
     inkscape:snap-bbox-edge-midpoints="true"
     inkscape:snap-bbox-midpoints="true"
     fit-margin-top="0"
     fit-margin-left="0"
     fit-margin-right="0"
     fit-margin-bottom="0" />
  <defs
     id="defs1172">
    <filter
       inkscape:collect="always"
       style="color-interpolation-filters:sRGB"
       id="filter21430"
       x="-0.083834171"
       y="-0.083834175"
       width="1.1676683"
       height="1.1676683">
      <feGaussianBlur
         inkscape:collect="always"
         stdDeviation="2.3248028"
         id="feGaussianBlur21432" />
    </filter>
  </defs>
  <g
     inkscape:label="Layer 1"
     inkscape:groupmode="layer"
     id="layer1"
     transform="translate(-63.984382,-100.84075)">
    <g
       id="g22590"
       transform="translate(206.31581,84.502044)">
      <g
         id="g22588"
         transform="matrix(0.69209443,0,0,0.69209443,-12.756361,-16.89413)">
        <g
           id="g28821">
          <path
             id="rect22550"
             style="fill:#ffffff;stroke-width:0.356691;stroke-linecap:round"
             transform="matrix(1.4448896,0,0,1.4448896,18.431532,24.410152)"
             d="m -142.33142,16.338711 h 79.999999 v 80 h -79.999999 z" />
          <path
             id="rect22554"
             style="fill:#ff6600;stroke-width:0.392496;stroke-linecap:round"
             d="M -187.22165,48.017784 H -71.630486 V 115.05904 H -187.22165 Z" />
          <path
             id="rect24683"
             style="fill:#4c4c4c;stroke-width:0.313549;stroke-linecap:round"
             d="m -187.22165,120.8247 h 115.591164 v 42.78425 H -187.22165 Z" />
          <g
             id="g28173"
             transform="translate(-0.90434927)">
            <g
               id="g22566"
               transform="translate(-232.83252)">
              <path
                 id="path22556"
                 style="opacity:0.426147;stroke-width:1.88976;stroke-linecap:round;filter:url(#filter21430)"
                 transform="matrix(1.0086932,0,0,1.024433,-1.1985975,-0.95059314)"
                 d="M 113.50191,73.14582 A 33.277164,33.277164 0 0 1 136.70637,113.9599 33.277164,33.277164 0 0 1 96.002789,137.35765 33.277164,33.277164 0 0 1 72.412268,96.765495 33.277164,33.277164 0 0 1 112.8921,72.982735 Z" />
              <path
                 id="path22558"
                 style="fill:#ffffff;stroke-width:1.88976;stroke-linecap:round"
                 d="M 112.8921,72.982727 A 33.277164,33.277164 0 0 1 136.09655,113.79681 33.277164,33.277164 0 0 1 95.392971,137.19456 33.277164,33.277164 0 0 1 71.80245,96.602401 33.277164,33.277164 0 0 1 112.28228,72.819641 Z" />
              <g
                 id="g22564"
                 transform="translate(-0.00407828,0.08560464)">
                <path
                   d="m 104.04959,75.520086 c -16.256995,-0.03073 -29.466544,13.127375 -29.497279,29.385164 -0.0061,3.25029 0.514502,6.37711 1.482304,9.30292 l 8.804645,0.0166 0.04683,-24.771237 19.10092,19.173267 19.17327,-19.100912 -0.0468,24.771232 8.80544,0.0166 c 0.97886,-2.92214 1.51132,-6.04697 1.51747,-9.29725 0.0307,-16.257792 -13.12897,-29.46575 -29.38677,-29.496484"
                   id="path22560"
                   style="fill:#ff6600;stroke-width:0.548688" />
                <path
                   d="m 91.242585,104.65015 -0.02947,15.58684 -12.405964,-0.0235 c 5.152192,8.48891 14.475878,14.16942 25.130639,14.18956 10.65477,0.0202 20.00067,-5.62507 25.18412,-14.09444 l -12.40517,-0.0234 0.0295,-15.58683 -12.77632,12.7281 z"
                   id="path22562"
                   style="fill:#4c4c4c;stroke-width:0.548688" />
              </g>
            </g>
            <g
               id="g22586"
               transform="translate(-208.82245,13.34188)"
               style="fill:#ffffff">
              <g
                 aria-label="ACEITAMOS"
                 id="text22584"
                 style="font-size:9.56811px;line-height:1.25;text-align:center;letter-spacing:1.03219px;text-anchor:middle;stroke-width:0.239203">
                <path
                   d="m 51.247084,45.163845 -2.650366,6.869904 h 1.358672 l 0.564518,-1.416081 h 2.803456 l 0.535815,1.416081 h 1.358671 l -2.650366,-6.869904 z m 0.669768,1.817941 0.908971,2.363324 h -1.827509 z"
                   style="font-family:MoneroGothic;-inkscape-font-specification:MoneroGothic"
                   id="path202" />
                <path
                   d="m 63.569632,46.369427 c -0.382724,-0.440133 -0.841993,-0.775017 -1.358671,-1.014219 -0.526246,-0.239203 -1.071629,-0.363589 -1.636147,-0.363589 -0.669768,0 -1.291695,0.162658 -1.865782,0.487974 -0.574086,0.325316 -1.023788,0.746313 -1.329967,1.282127 -0.315748,0.535814 -0.468838,1.148173 -0.468838,1.827509 0,1.06206 0.334884,1.932758 1.023788,2.602526 0.679336,0.679336 1.550034,1.01422 2.621663,1.01422 0.574086,0 1.090764,-0.09568 1.540465,-0.287044 0.449702,-0.191362 0.928107,-0.535814 1.444785,-1.033356 l -0.889834,-0.918538 c -0.382725,0.373156 -0.727177,0.631495 -1.033356,0.775017 -0.315748,0.143521 -0.6602,0.210498 -1.042924,0.210498 -0.449701,0 -0.851562,-0.09568 -1.21515,-0.306179 -0.363588,-0.200931 -0.650632,-0.478406 -0.841994,-0.832426 -0.20093,-0.35402 -0.296611,-0.765449 -0.296611,-1.224718 0,-0.650632 0.220066,-1.205582 0.669767,-1.655283 0.449701,-0.449701 1.004652,-0.679336 1.664852,-0.679336 0.765448,0.0096 1.46392,0.344452 2.095416,0.995083 z"
                   style="font-family:MoneroGothic;-inkscape-font-specification:MoneroGothic"
                   id="path204" />
                <path
                   d="m 65.395973,45.163845 0.0096,6.869904 h 4.219537 v -1.282127 h -2.918274 v -1.588307 h 2.918274 v -1.329967 h -2.918274 v -1.387376 h 2.918274 v -1.282127 z"
                   style="font-family:MoneroGothic;-inkscape-font-specification:MoneroGothic"
                   id="path206" />
                <path
                   d="m 71.652341,45.163845 v 6.869904 h 1.301263 v -6.869904 z"
                   style="font-family:MoneroGothic;-inkscape-font-specification:MoneroGothic"
                   id="path208" />
                <path
                   d="m 74.770375,45.163845 v 1.291695 h 1.224718 v 5.578209 h 1.320399 V 46.45554 h 1.253423 v -1.291695 z"
                   style="font-family:MoneroGothic;-inkscape-font-specification:MoneroGothic"
                   id="path210" />
                <path
                   d="m 82.586345,45.163845 -2.650367,6.869904 h 1.358672 l 0.564518,-1.416081 h 2.803457 l 0.535814,1.416081 h 1.358671 l -2.650366,-6.869904 z m 0.669767,1.817941 0.908971,2.363324 h -1.827509 z"
                   style="font-family:MoneroGothic;-inkscape-font-specification:MoneroGothic"
                   id="path212" />
                <path
                   d="m 89.25414,45.163845 -1.186446,6.869904 h 1.282127 l 0.746313,-4.343923 1.444784,4.343923 h 1.157742 l 1.463921,-4.343923 0.736744,4.343923 h 1.262991 l -1.16731,-6.869904 h -1.253422 l -1.617011,4.793624 -1.588306,-4.793624 z"
                   style="font-family:MoneroGothic;-inkscape-font-specification:MoneroGothic"
                   id="path214" />
                <path
                   d="m 101.47144,44.991619 c -0.65063,0 -1.24386,0.162658 -1.798808,0.487974 -0.55495,0.325316 -0.995083,0.755881 -1.310831,1.310831 -0.315747,0.55495 -0.468837,1.157741 -0.468837,1.808373 0,0.975947 0.334884,1.827509 1.01422,2.535549 0.679335,0.717609 1.540466,1.071629 2.573826,1.071629 0.98551,0 1.8275,-0.344452 2.51641,-1.042924 0.6889,-0.688904 1.03335,-1.540466 1.03335,-2.545118 0,-1.01422 -0.35402,-1.865781 -1.05249,-2.573822 -0.70804,-0.698472 -1.54046,-1.052492 -2.50684,-1.052492 z m -0.01,1.272559 c 0.63149,0 1.15774,0.229635 1.59787,0.679336 0.44014,0.459269 0.6602,1.01422 0.6602,1.664851 0,0.6602 -0.22006,1.21515 -0.6602,1.664851 -0.44013,0.449701 -0.96638,0.669768 -1.57873,0.669768 -0.55496,0 -1.03336,-0.172226 -1.45436,-0.516678 -0.54538,-0.440133 -0.813287,-1.042924 -0.813287,-1.808373 0,-0.679336 0.210499,-1.243854 0.641064,-1.683987 0.430563,-0.440133 0.966383,-0.669768 1.607443,-0.669768 z"
                   style="font-family:MoneroGothic;-inkscape-font-specification:MoneroGothic"
                   id="path216" />
                <path
                   d="m 111.83253,50.072286 v -0.01914 c -0.01,-0.574087 -0.17223,-1.004652 -0.49755,-1.310831 -0.32531,-0.296612 -0.84199,-0.545383 -1.53089,-0.746313 -0.57409,-0.15309 -0.94725,-0.287043 -1.11947,-0.401861 -0.17223,-0.105249 -0.25834,-0.267907 -0.25834,-0.497541 v -0.01914 c 0,-0.172226 0.067,-0.315747 0.2105,-0.430565 0.14352,-0.114817 0.34445,-0.172226 0.61236,-0.172226 0.49754,0 1.04292,0.229635 1.65528,0.679336 l 0.73674,-1.138605 c -0.67933,-0.574086 -1.47349,-0.870698 -2.37289,-0.870698 -0.66977,0 -1.20558,0.191362 -1.61701,0.564519 -0.42099,0.382724 -0.62193,0.889834 -0.62193,1.502193 v 0.01914 c 0,0.325316 0.0478,0.612359 0.14353,0.851562 0.0861,0.229635 0.22963,0.420997 0.44013,0.574087 0.2105,0.162658 0.421,0.287043 0.65063,0.382724 0.22007,0.09568 0.51668,0.191362 0.88027,0.287043 0.51668,0.143522 0.86113,0.277476 1.03335,0.392293 0.17223,0.124385 0.25834,0.287043 0.25834,0.478405 v 0.01914 c 0,0.210498 -0.0861,0.363588 -0.24877,0.478405 -0.17222,0.114817 -0.39229,0.172226 -0.67933,0.172226 -0.65064,0 -1.28213,-0.277475 -1.90406,-0.832425 l -0.83242,1.06206 c 0.76544,0.736744 1.66485,1.100333 2.71734,1.100333 0.69847,0 1.26299,-0.181795 1.69355,-0.564519 0.43057,-0.373156 0.65064,-0.889834 0.65064,-1.559602 z"
                   style="font-family:MoneroGothic;-inkscape-font-specification:MoneroGothic"
                   id="path218" />
              </g>
              <g
                 id="g27851"
                 transform="matrix(1.7243466,0,0,1.7243466,-87.421205,-28.615419)"
                 style="fill:#ffffff">
                <path
                   d="m 114.08533,97.021231 c -0.36569,0.375139 -0.80866,0.561562 -1.3291,0.560579 -0.45982,-9.38e-4 -0.86606,-0.146059 -1.22132,-0.437068 -0.45669,-0.371082 -0.68415,-0.875673 -0.68295,-1.513591 10e-4,-0.571133 0.18381,-1.042773 0.54818,-1.412489 0.36306,-0.371029 0.81126,-0.554823 1.34498,-0.553814 0.52698,9.85e-4 0.97466,0.191909 1.34154,0.572175 0.36838,0.380455 0.55195,0.845118 0.55091,1.39455 -9.3e-4,0.550929 -0.18487,1.013213 -0.55224,1.389658 m 0.77313,-3.541144 c -0.5848,-0.590574 -1.28483,-0.887473 -2.10065,-0.889015 -0.53764,-10e-4 -1.04056,0.133287 -1.50632,0.402353 -0.46745,0.26925 -0.83462,0.634845 -1.10151,1.09716 -0.26708,0.462128 -0.4016,0.968842 -0.40265,1.519583 -0.002,0.822559 0.28314,1.533041 0.85464,2.132195 0.57093,0.600087 1.28873,0.899638 2.15226,0.90127 0.82517,0.0016 1.52799,-0.287262 2.10808,-0.869273 0.58009,-0.5807 0.87028,-1.292714 0.87187,-2.133979 0.002,-0.848001 -0.28999,-1.567849 -0.87572,-2.160294"
                   id="path30-6-7-7"
                   style="fill:#ffffff;stroke-width:0.128658" />
                <path
                   d="m 107.65375,94.803292 c -0.13918,0.09664 -0.20493,0.14422 -0.57272,0.143525 l -1.44719,-0.0027 0.002,-1.238047 1.40229,0.0027 c 0.28117,5.4e-4 0.33089,0.02177 0.44605,0.06538 0.11478,0.04231 0.20594,0.11282 0.2746,0.209667 0.0687,0.09703 0.10212,0.212147 0.10187,0.344033 -4.7e-4,0.221868 -0.0696,0.380375 -0.20725,0.475523 m 0.17183,1.140162 c 0.38357,-0.136961 0.67167,-0.338455 0.86299,-0.604673 0.19151,-0.267714 0.28623,-0.599029 0.28698,-0.997493 7.1e-4,-0.3777 -0.0841,-0.706361 -0.25649,-0.983181 -0.17214,-0.27682 -0.40056,-0.475175 -0.68375,-0.595064 -0.28337,-0.119888 -0.75917,-0.181025 -1.4287,-0.182291 l -2.11935,-0.004 -0.0114,6.049929 1.15105,0.0021 0.005,-2.561773 1.00458,0.0019 1.35704,2.564348 1.259,0.0024 z"
                   id="path34-3-5-0"
                   style="fill:#ffffff;stroke-width:0.128658" />
                <path
                   d="m 99.327382,92.565682 3.922538,0.0074 -0.002,1.127112 -2.7784,-0.0053 -0.002,1.238234 2.77841,0.0053 -0.002,1.10747 -2.77841,-0.0053 -0.003,1.445698 2.7784,0.0053 -0.002,1.131602 -3.922533,-0.0074 z"
                   id="path38-2-3-9"
                   style="fill:#ffffff;stroke-width:0.128658" />
                <path
                   d="m 93.249712,92.554193 1.102045,0.0021 2.58792,3.985811 0.0075,-3.980905 1.15106,0.0022 -0.01144,6.049926 -1.106161,-0.0021 -2.583828,-3.973081 -0.0075,3.968183 -1.151058,-0.0021 z"
                   id="path42-0-5-3"
                   style="fill:#ffffff;stroke-width:0.128658" />
                <path
                   d="m 90.690292,96.977004 c -0.36569,0.375139 -0.80866,0.561562 -1.3291,0.560579 -0.45982,-9.38e-4 -0.86606,-0.146059 -1.22132,-0.437068 -0.45669,-0.371082 -0.68415,-0.875673 -0.68295,-1.513591 10e-4,-0.571133 0.18381,-1.042773 0.54818,-1.412489 0.36306,-0.371029 0.81126,-0.554823 1.34498,-0.553814 0.52698,9.85e-4 0.97466,0.191909 1.34154,0.572175 0.36838,0.380455 0.55195,0.845118 0.55091,1.39455 -9.3e-4,0.550929 -0.18487,1.013213 -0.55224,1.389658 m 0.77313,-3.541144 c -0.5848,-0.590574 -1.28483,-0.887473 -2.10065,-0.889015 -0.53764,-0.001 -1.04056,0.133287 -1.50632,0.402353 -0.46745,0.26925 -0.83462,0.634845 -1.10151,1.09716 -0.26708,0.462128 -0.4016,0.968842 -0.40265,1.519583 -0.002,0.822559 0.28314,1.533041 0.85464,2.132195 0.57093,0.600087 1.28873,0.899638 2.15226,0.90127 0.82517,0.0016 1.52799,-0.287262 2.10808,-0.869273 0.58009,-0.5807 0.87028,-1.292714 0.87187,-2.133979 0.002,-0.848001 -0.28999,-1.567849 -0.87572,-2.160294"
                   id="use46-6-6-6"
                   style="fill:#ffffff;stroke-width:0.128658" />
                <path
                   d="m 79.855576,92.528704 1.127113,0.0021 1.390016,4.222439 1.427297,-4.217113 1.110276,0.0021 1.007921,6.052042 -1.110463,-0.0021 -0.642667,-3.822185 -1.29447,3.818525 -1.015055,-0.0019 -1.263,-3.823358 -0.669835,3.819705 -1.122996,-0.0021 z"
                   id="path50-1-2-0"
                   style="fill:#ffffff;stroke-width:0.128658" />
              </g>
            </g>
          </g>
        </g>
      </g>
    </g>
  </g>
  <metadata
     id="metadata29048">
    <rdf:RDF>
      <cc:Work
         rdf:about="">
        <cc:license
           rdf:resource="http://creativecommons.org/publicdomain/zero/1.0/" />
        <dc:creator>
          <cc:Agent>
            <dc:title>icarolongo - https://github.com/icarolongo/we-accept-monero</dc:title>
          </cc:Agent>
        </dc:creator>
        <dc:date>2022-06-21</dc:date>
        <dc:title>We Accept Monero</dc:title>
        <dc:source>https://github.com/icarolongo/we-accept-monero</dc:source>
      </cc:Work>
      <cc:License
         rdf:about="http://creativecommons.org/publicdomain/zero/1.0/">
        <cc:permits
           rdf:resource="http://creativecommons.org/ns#Reproduction" />
        <cc:permits
           rdf:resource="http://creativecommons.org/ns#Distribution" />
        <cc:permits
           rdf:resource="http://creativecommons.org/ns#DerivativeWorks" />
      </cc:License>
    </rdf:RDF>
  </metadata>
</svg>
