<?xml version="1.0" encoding="UTF-8" standalone="no"?>
<!-- Created with Inkscape (http://www.inkscape.org/) -->

<svg
   width="80.000008mm"
   height="80.000008mm"
   viewBox="0 0 80.000008 80.000008"
   version="1.1"
   id="svg1175"
   inkscape:version="1.1.2 (0a00cf5339, 2022-02-04)"
   sodipodi:docname="we-accept-monero.pt-BR.svg"
   xmlns:inkscape="http://www.inkscape.org/namespaces/inkscape"
   xmlns:sodipodi="http://sodipodi.sourceforge.net/DTD/sodipodi-0.dtd"
   xmlns:xlink="http://www.w3.org/1999/xlink"
   xmlns="http://www.w3.org/2000/svg"
   xmlns:svg="http://www.w3.org/2000/svg"
   xmlns:rdf="http://www.w3.org/1999/02/22-rdf-syntax-ns#"
   xmlns:cc="http://creativecommons.org/ns#"
   xmlns:dc="http://purl.org/dc/elements/1.1/">
  <title
     id="title16346">We Accept Monero</title>
  <sodipodi:namedview
     id="namedview1177"
     pagecolor="#505050"
     bordercolor="#ffffff"
     borderopacity="1"
     inkscape:pageshadow="0"
     inkscape:pageopacity="0"
     inkscape:pagecheckerboard="1"
     inkscape:document-units="mm"
     showgrid="false"
     inkscape:zoom="1.6404166"
     inkscape:cx="151.48591"
     inkscape:cy="151.18111"
     inkscape:window-width="1366"
     inkscape:window-height="704"
     inkscape:window-x="0"
     inkscape:window-y="27"
     inkscape:window-maximized="1"
     inkscape:current-layer="layer1"
     showguides="false"
     inkscape:snap-bbox="true"
     inkscape:bbox-paths="true"
     inkscape:bbox-nodes="true"
     inkscape:snap-bbox-edge-midpoints="true"
     inkscape:snap-bbox-midpoints="true"
     fit-margin-top="0"
     fit-margin-left="0"
     fit-margin-right="0"
     fit-margin-bottom="0" />
  <defs
     id="defs1172">
    <filter
       inkscape:collect="always"
       style="color-interpolation-filters:sRGB"
       id="filter21430"
       x="-0.08383417"
       y="-0.08383417"
       width="1.1676683"
       height="1.1676683">
      <feGaussianBlur
         inkscape:collect="always"
         stdDeviation="2.3248028"
         id="feGaussianBlur21432" />
    </filter>
  </defs>
  <g
     inkscape:label="Layer 1"
     inkscape:groupmode="layer"
     id="layer1"
     transform="translate(-63.984382,-100.84075)">
    <g
       id="g22590"
       transform="translate(206.31581,84.502044)">
      <g
         id="g22588"
         transform="matrix(0.69209443,0,0,0.69209443,-12.756361,-16.89413)">
        <g
           id="g28821">
          <rect
             style="fill:#ffffff;fill-opacity:1;stroke:none;stroke-width:0.356691;stroke-linecap:round;stroke-miterlimit:4;stroke-dasharray:none"
             id="rect22550"
             width="80"
             height="80"
             x="-142.33142"
             y="16.338711"
             transform="matrix(1.4448896,0,0,1.4448896,18.431532,24.410152)" />
          <rect
             style="fill:#ff6600;fill-opacity:1;stroke:none;stroke-width:0.392496;stroke-linecap:round;stroke-miterlimit:4;stroke-dasharray:none"
             id="rect22554"
             width="115.59116"
             height="67.041252"
             x="-187.22165"
             y="48.017784" />
          <rect
             style="fill:#4c4c4c;fill-opacity:1;stroke:none;stroke-width:0.313549;stroke-linecap:round;stroke-miterlimit:4;stroke-dasharray:none"
             id="rect24683"
             width="115.59116"
             height="42.784248"
             x="-187.22165"
             y="120.8247" />
          <g
             id="g28173"
             transform="translate(-0.90434927)">
            <path
               style="fill:#ffffff;fill-opacity:1;stroke:none;stroke-width:1.88976;stroke-linecap:round;stroke-miterlimit:4;stroke-dasharray:none"
               id="path22552"
               sodipodi:type="arc"
               sodipodi:cx="-128.52171"
               sodipodi:cy="105.04715"
               sodipodi:rx="33.277164"
               sodipodi:ry="33.277164"
               sodipodi:start="4.9831922"
               sodipodi:end="4.9642225"
               sodipodi:arc-type="chord"
               sodipodi:open="true"
               d="m -119.61989,72.982727 a 33.277164,33.277164 0 0 1 23.204455,40.814083 33.277164,33.277164 0 0 1 -40.703575,23.39775 33.277164,33.277164 0 0 1 -23.59053,-40.592159 33.277164,33.277164 0 0 1 40.47983,-23.78276 z" />
            <g
               id="g22566"
               transform="translate(-232.83252)">
              <path
                 style="opacity:0.426147;fill:#000000;fill-opacity:1;stroke:none;stroke-width:1.88976;stroke-linecap:round;stroke-miterlimit:4;stroke-dasharray:none;filter:url(#filter21430)"
                 id="path22556"
                 sodipodi:type="arc"
                 sodipodi:cx="104.60009"
                 sodipodi:cy="105.21024"
                 sodipodi:rx="33.277164"
                 sodipodi:ry="33.277164"
                 sodipodi:start="4.9831922"
                 sodipodi:end="4.9642225"
                 sodipodi:arc-type="chord"
                 sodipodi:open="true"
                 transform="matrix(1.0086932,0,0,1.024433,-1.1985975,-0.95059314)"
                 d="M 113.50191,73.14582 A 33.277164,33.277164 0 0 1 136.70637,113.9599 33.277164,33.277164 0 0 1 96.002789,137.35765 33.277164,33.277164 0 0 1 72.412268,96.765495 33.277164,33.277164 0 0 1 112.8921,72.982735 Z" />
              <path
                 style="fill:#ffffff;fill-opacity:1;stroke:none;stroke-width:1.88976;stroke-linecap:round;stroke-miterlimit:4;stroke-dasharray:none"
                 id="path22558"
                 sodipodi:type="arc"
                 sodipodi:cx="103.99027"
                 sodipodi:cy="105.04715"
                 sodipodi:rx="33.277164"
                 sodipodi:ry="33.277164"
                 sodipodi:start="4.9831922"
                 sodipodi:end="4.9642225"
                 sodipodi:arc-type="chord"
                 sodipodi:open="true"
                 d="M 112.8921,72.982727 A 33.277164,33.277164 0 0 1 136.09655,113.79681 33.277164,33.277164 0 0 1 95.392971,137.19456 33.277164,33.277164 0 0 1 71.80245,96.602401 33.277164,33.277164 0 0 1 112.28228,72.819641 Z" />
              <g
                 id="g22564"
                 transform="translate(-0.00407828,0.08560464)">
                <path
                   d="m 104.04959,75.520086 c -16.256995,-0.03073 -29.466544,13.127375 -29.497279,29.385164 -0.0061,3.25029 0.514502,6.37711 1.482304,9.30292 l 8.804645,0.0166 0.04683,-24.771237 19.10092,19.173267 19.17327,-19.100912 -0.0468,24.771232 8.80544,0.0166 c 0.97886,-2.92214 1.51132,-6.04697 1.51747,-9.29725 0.0307,-16.257792 -13.12897,-29.46575 -29.38677,-29.496484"
                   id="path22560"
                   style="fill:#ff6600;stroke-width:0.548688" />
                <path
                   d="m 91.242585,104.65015 -0.02947,15.58684 -12.405964,-0.0235 c 5.152192,8.48891 14.475878,14.16942 25.130639,14.18956 10.65477,0.0202 20.00067,-5.62507 25.18412,-14.09444 l -12.40517,-0.0234 0.0295,-15.58683 -12.77632,12.7281 z"
                   id="path22562"
                   style="fill:#4c4c4c;stroke-width:0.548688" />
              </g>
            </g>
            <g
               id="g22586"
               transform="translate(-208.82245,13.34188)"
               style="fill:#ffffff">
              <text
                 xml:space="preserve"
                 style="font-style:normal;font-weight:normal;font-size:9.56811px;line-height:1.25;font-family:sans-serif;text-align:center;letter-spacing:1.03219296px;text-anchor:middle;fill:#ffffff;fill-opacity:1;stroke:none;stroke-width:0.239203"
                 x="80.224182"
                 y="52.033749"
                 id="text22584"><tspan
                   sodipodi:role="line"
                   id="tspan22582"
                   style="font-style:normal;font-variant:normal;font-weight:normal;font-stretch:normal;font-family:MoneroGothic;-inkscape-font-specification:MoneroGothic;text-align:center;text-anchor:middle;fill:#ffffff;stroke-width:0.239203"
                   x="80.931427"
                   y="52.033749">ACEITAMOS</tspan></text>
              <g
                 id="g27851"
                 transform="matrix(1.7243466,0,0,1.7243466,-87.421205,-28.615419)"
                 style="fill:#ffffff">
                <path
                   d="m 114.08533,97.021231 c -0.36569,0.375139 -0.80866,0.561562 -1.3291,0.560579 -0.45982,-9.38e-4 -0.86606,-0.146059 -1.22132,-0.437068 -0.45669,-0.371082 -0.68415,-0.875673 -0.68295,-1.513591 10e-4,-0.571133 0.18381,-1.042773 0.54818,-1.412489 0.36306,-0.371029 0.81126,-0.554823 1.34498,-0.553814 0.52698,9.85e-4 0.97466,0.191909 1.34154,0.572175 0.36838,0.380455 0.55195,0.845118 0.55091,1.39455 -9.3e-4,0.550929 -0.18487,1.013213 -0.55224,1.389658 m 0.77313,-3.541144 c -0.5848,-0.590574 -1.28483,-0.887473 -2.10065,-0.889015 -0.53764,-10e-4 -1.04056,0.133287 -1.50632,0.402353 -0.46745,0.26925 -0.83462,0.634845 -1.10151,1.09716 -0.26708,0.462128 -0.4016,0.968842 -0.40265,1.519583 -0.002,0.822559 0.28314,1.533041 0.85464,2.132195 0.57093,0.600087 1.28873,0.899638 2.15226,0.90127 0.82517,0.0016 1.52799,-0.287262 2.10808,-0.869273 0.58009,-0.5807 0.87028,-1.292714 0.87187,-2.133979 0.002,-0.848001 -0.28999,-1.567849 -0.87572,-2.160294"
                   id="path30-6-7-7"
                   style="fill:#ffffff;stroke-width:0.128658" />
                <path
                   d="m 107.65375,94.803292 c -0.13918,0.09664 -0.20493,0.14422 -0.57272,0.143525 l -1.44719,-0.0027 0.002,-1.238047 1.40229,0.0027 c 0.28117,5.4e-4 0.33089,0.02177 0.44605,0.06538 0.11478,0.04231 0.20594,0.11282 0.2746,0.209667 0.0687,0.09703 0.10212,0.212147 0.10187,0.344033 -4.7e-4,0.221868 -0.0696,0.380375 -0.20725,0.475523 m 0.17183,1.140162 c 0.38357,-0.136961 0.67167,-0.338455 0.86299,-0.604673 0.19151,-0.267714 0.28623,-0.599029 0.28698,-0.997493 7.1e-4,-0.3777 -0.0841,-0.706361 -0.25649,-0.983181 -0.17214,-0.27682 -0.40056,-0.475175 -0.68375,-0.595064 -0.28337,-0.119888 -0.75917,-0.181025 -1.4287,-0.182291 l -2.11935,-0.004 -0.0114,6.049929 1.15105,0.0021 0.005,-2.561773 1.00458,0.0019 1.35704,2.564348 1.259,0.0024 z"
                   id="path34-3-5-0"
                   style="fill:#ffffff;stroke-width:0.128658" />
                <path
                   d="m 99.327382,92.565682 3.922538,0.0074 -0.002,1.127112 -2.7784,-0.0053 -0.002,1.238234 2.77841,0.0053 -0.002,1.10747 -2.77841,-0.0053 -0.003,1.445698 2.7784,0.0053 -0.002,1.131602 -3.922533,-0.0074 z"
                   id="path38-2-3-9"
                   style="fill:#ffffff;stroke-width:0.128658" />
                <path
                   d="m 93.249712,92.554193 1.102045,0.0021 2.58792,3.985811 0.0075,-3.980905 1.15106,0.0022 -0.01144,6.049926 -1.106161,-0.0021 -2.583828,-3.973081 -0.0075,3.968183 -1.151058,-0.0021 z"
                   id="path42-0-5-3"
                   style="fill:#ffffff;stroke-width:0.128658" />
                <use
                   transform="translate(-23.395038,-0.0442268)"
                   id="use46-6-6-6"
                   x="0"
                   y="0"
                   width="282"
                   height="75"
                   xlink:href="#path30-6-7-7"
                   style="fill:#ffffff;stroke-width:0.68774" />
                <path
                   d="m 79.855576,92.528704 1.127113,0.0021 1.390016,4.222439 1.427297,-4.217113 1.110276,0.0021 1.007921,6.052042 -1.110463,-0.0021 -0.642667,-3.822185 -1.29447,3.818525 -1.015055,-0.0019 -1.263,-3.823358 -0.669835,3.819705 -1.122996,-0.0021 z"
                   id="path50-1-2-0"
                   style="fill:#ffffff;stroke-width:0.128658" />
              </g>
            </g>
          </g>
        </g>
      </g>
    </g>
  </g>
  <metadata
     id="metadata29048">
    <rdf:RDF>
      <cc:Work
         rdf:about="">
        <cc:license
           rdf:resource="http://creativecommons.org/publicdomain/zero/1.0/" />
        <dc:creator>
          <cc:Agent>
            <dc:title>icarolongo - https://github.com/icarolongo/we-accept-monero</dc:title>
          </cc:Agent>
        </dc:creator>
        <dc:date>2022-06-21</dc:date>
        <dc:title>We Accept Monero</dc:title>
        <dc:source>https://github.com/icarolongo/we-accept-monero</dc:source>
      </cc:Work>
      <cc:License
         rdf:about="http://creativecommons.org/publicdomain/zero/1.0/">
        <cc:permits
           rdf:resource="http://creativecommons.org/ns#Reproduction" />
        <cc:permits
           rdf:resource="http://creativecommons.org/ns#Distribution" />
        <cc:permits
           rdf:resource="http://creativecommons.org/ns#DerivativeWorks" />
      </cc:License>
    </rdf:RDF>
  </metadata>
</svg>
